<svg width="1024" height="1024" viewBox="0 0 1024 1024" fill="none" xmlns="http://www.w3.org/2000/svg">
<circle cx="512" cy="512" r="413.416" fill="url(#paint0_linear_8191_6676)"/>
<circle cx="512" cy="512" r="305.255" fill="white" fill-opacity="0.27" stroke="white"/>
<g filter="url(#filter0_di_8191_6676)">
<path d="M554.229 317.468C583.457 317.468 598.07 335.21 598.07 355.538C598.07 380.925 572.682 404.404 539.638 404.404C511.959 404.404 495.818 389.815 496.582 365.693C496.582 345.403 515.798 317.468 554.229 317.468ZM464.301 706.532C441.224 706.532 424.321 693.848 440.461 637.979L466.94 538.923C471.542 523.088 472.306 516.727 466.94 516.727C460.026 516.727 430.101 527.66 412.368 538.456L400.852 521.338C456.951 478.813 521.491 453.893 549.191 453.893C572.246 453.893 576.084 478.657 564.568 516.727L534.228 620.841C528.863 639.224 531.153 645.565 536.54 645.565C543.455 645.565 566.138 637.94 588.43 622.086L601.517 637.92C546.944 687.468 487.334 706.532 464.301 706.532Z" fill="url(#paint1_linear_8191_6676)"/>
</g>
<defs>
<filter id="filter0_di_8191_6676" x="396.852" y="317.468" width="208.665" height="397.063" filterUnits="userSpaceOnUse" color-interpolation-filters="sRGB">
<feFlood flood-opacity="0" result="BackgroundImageFix"/>
<feColorMatrix in="SourceAlpha" type="matrix" values="0 0 0 0 0 0 0 0 0 0 0 0 0 0 0 0 0 0 127 0" result="hardAlpha"/>
<feOffset dy="4"/>
<feGaussianBlur stdDeviation="2"/>
<feComposite in2="hardAlpha" operator="out"/>
<feColorMatrix type="matrix" values="0 0 0 0 0 0 0 0 0 0 0 0 0 0 0 0 0 0 0.25 0"/>
<feBlend mode="normal" in2="BackgroundImageFix" result="effect1_dropShadow_8191_6676"/>
<feBlend mode="normal" in="SourceGraphic" in2="effect1_dropShadow_8191_6676" result="shape"/>
<feColorMatrix in="SourceAlpha" type="matrix" values="0 0 0 0 0 0 0 0 0 0 0 0 0 0 0 0 0 0 127 0" result="hardAlpha"/>
<feOffset dy="7"/>
<feGaussianBlur stdDeviation="4.7"/>
<feComposite in2="hardAlpha" operator="arithmetic" k2="-1" k3="1"/>
<feColorMatrix type="matrix" values="0 0 0 0 1 0 0 0 0 1 0 0 0 0 1 0 0 0 0.75 0"/>
<feBlend mode="normal" in2="shape" result="effect2_innerShadow_8191_6676"/>
</filter>
<linearGradient id="paint0_linear_8191_6676" x1="512" y1="98.584" x2="512" y2="925.416" gradientUnits="userSpaceOnUse">
<stop stop-color="#BECCDD"/>
<stop offset="1" stop-color="#72808D"/>
</linearGradient>
<linearGradient id="paint1_linear_8191_6676" x1="400.852" y1="512" x2="601.517" y2="512" gradientUnits="userSpaceOnUse">
<stop stop-color="#D9D9D9"/>
<stop offset="0.0501209" stop-color="#DBDBDB"/>
<stop offset="0.157325" stop-color="#EDEDED"/>
<stop offset="0.852778" stop-color="#EDEDED"/>
<stop offset="0.953196" stop-color="#DBDBDB"/>
<stop offset="1" stop-color="#D9D9D9"/>
</linearGradient>
</defs>
</svg>
